<svg width="24" height="24" viewBox="0 0 24 24" fill="none" xmlns="http://www.w3.org/2000/svg">
<path fill-rule="evenodd" clip-rule="evenodd" d="M5.1396 10.3934V10.4021C5.20628 12.252 5.84646 14.0355 6.97168 15.5057L6.97743 15.5132C8.30769 17.2896 9.94012 18.8182 11.8001 20.0288C11.8344 20.0511 11.867 20.0757 11.8979 20.1024C11.9094 20.1123 11.9263 20.1123 11.9378 20.1024C11.9695 20.075 12.0032 20.0498 12.0384 20.027C13.2862 19.2215 14.4366 18.2745 15.467 17.205C17.2773 15.2938 18.6471 12.9553 18.6961 10.5222V10.444L18.6961 10.4409C18.7088 6.6974 15.6844 3.65236 11.9409 3.63964C8.19785 3.62692 5.15312 6.65054 5.1396 10.3934ZM3.3396 10.3888C3.3557 5.65112 7.20937 1.82355 11.947 1.83965C16.6841 1.85574 20.5113 5.70847 20.4961 10.4453V10.5309L20.496 10.548C20.4377 13.6238 18.7316 16.3768 16.7711 18.4457L16.7662 18.4509C15.6512 19.6087 14.4075 20.6351 13.0594 21.5103C12.3918 22.0435 11.442 22.043 10.7748 21.5091C8.7571 20.1886 6.98535 18.5259 5.53941 16.5959C4.1854 14.8252 3.41667 12.6766 3.34013 10.4488C3.33978 10.4385 3.3396 10.4282 3.3396 10.4179L3.3396 10.3888ZM11.9182 8.97896C11.0562 8.97896 10.3574 9.67778 10.3574 10.5398C10.3574 11.4019 11.0562 12.1007 11.9182 12.1007C12.7803 12.1007 13.4791 11.4019 13.4791 10.5398C13.4791 9.67778 12.7803 8.97896 11.9182 8.97896ZM8.55737 10.5398C8.55737 8.68367 10.0621 7.17896 11.9182 7.17896C13.7744 7.17896 15.2791 8.68367 15.2791 10.5398C15.2791 12.396 13.7744 13.9007 11.9182 13.9007C10.0621 13.9007 8.55737 12.396 8.55737 10.5398Z" fill="#F2F2F2"/>
</svg>
