<svg width="24" height="24" viewBox="0 0 24 24" fill="none" xmlns="http://www.w3.org/2000/svg">
<path fill-rule="evenodd" clip-rule="evenodd" d="M12.1873 3.30275C12.0777 3.2151 11.922 3.2151 11.8124 3.30275L3.01245 10.3428C2.94128 10.3997 2.89985 10.4859 2.89985 10.577V21.8003C2.89985 21.9659 3.03417 22.1003 3.19985 22.1003H7.79985C7.96554 22.1003 8.09985 21.9659 8.09985 21.8003V17.2003C8.09985 16.0405 9.04006 15.1003 10.1999 15.1003H13.7999C14.9597 15.1003 15.8999 16.0405 15.8999 17.2003V21.8003C15.8999 21.9659 16.0342 22.1003 16.1999 22.1003H20.7999C20.9655 22.1003 21.0999 21.9659 21.0999 21.8003V10.577C21.0999 10.4859 21.0584 10.3997 20.9873 10.3428L12.1873 3.30275ZM10.688 1.89719C11.455 1.28362 12.5448 1.28362 13.3117 1.89719L22.1117 8.93719C22.6099 9.33571 22.8999 9.93907 22.8999 10.577V21.8003C22.8999 22.9601 21.9597 23.9003 20.7999 23.9003H16.1999C15.0401 23.9003 14.0999 22.9601 14.0999 21.8003V17.2003C14.0999 17.0346 13.9655 16.9003 13.7999 16.9003H10.1999C10.0342 16.9003 9.89985 17.0346 9.89985 17.2003V21.8003C9.89985 22.9601 8.95965 23.9003 7.79985 23.9003H3.19985C2.04006 23.9003 1.09985 22.9601 1.09985 21.8003V10.577C1.09985 9.93907 1.38984 9.33571 1.88799 8.93719L10.688 1.89719Z" fill="white"/>
</svg>
