<svg width="24" height="24" viewBox="0 0 24 24" fill="none" xmlns="http://www.w3.org/2000/svg">
<path fill-rule="evenodd" clip-rule="evenodd" d="M11.7668 3.77905C7.35486 3.77905 3.77826 7.35565 3.77826 11.7676C3.77826 16.1796 7.35486 19.7562 11.7668 19.7562C16.1788 19.7562 19.7554 16.1796 19.7554 11.7676C19.7554 7.35565 16.1788 3.77905 11.7668 3.77905ZM1.77826 11.7676C1.77826 6.25108 6.25029 1.77905 11.7668 1.77905C17.2833 1.77905 21.7554 6.25108 21.7554 11.7676C21.7554 14.2842 20.8247 16.5833 19.2888 18.3398L22.2487 21.292C22.6397 21.682 22.6406 22.3151 22.2505 22.7062C21.8605 23.0972 21.2274 23.098 20.8363 22.708L17.8281 19.7076C16.1472 20.9927 14.0461 21.7562 11.7668 21.7562C6.25029 21.7562 1.77826 17.2841 1.77826 11.7676Z" fill="white"/>
</svg>
