<svg width="24" height="24" viewBox="0 0 24 24" fill="none" xmlns="http://www.w3.org/2000/svg">
<rect width="24" height="24" rx="8" fill="#0A0A0A"/>
<path d="M8.72858 9.96167H6.25279V18.0123H8.72858V9.96167Z" fill="white"/>
<path d="M7.46551 8.94941C8.27393 8.94941 8.93077 8.29118 8.93077 7.48105C8.93077 6.67092 8.27393 6.0127 7.46551 6.0127C6.65709 6.0127 6.00024 6.67092 6.00024 7.48105C6.00024 8.29118 6.65709 8.94941 7.46551 8.94941Z" fill="white"/>
<path d="M12.6696 13.8101C12.6696 12.6961 13.1749 11.9873 14.1854 11.9873C15.0949 11.9873 15.5496 12.6455 15.5496 13.8101C15.5496 14.9746 15.5496 18.0126 15.5496 18.0126H18.0254C18.0254 18.0126 18.0254 15.0759 18.0254 12.9493C18.0254 10.8227 16.8128 9.75943 15.0949 9.75943C13.377 9.75943 12.6696 11.0759 12.6696 11.0759V10.0126H10.2949V18.0632H12.6696C12.6696 18.0126 12.6696 15.0253 12.6696 13.8101Z" fill="white"/>
</svg>
