<svg width="24" height="24" viewBox="0 0 24 24" fill="none" xmlns="http://www.w3.org/2000/svg">
<rect width="24" height="24" rx="8" fill="#0A0A0A"/>
<path fill-rule="evenodd" clip-rule="evenodd" d="M18.1876 11.2892C18.0866 7.79555 15.2571 5.01074 11.7202 5.01074C8.23393 5.01074 5.40445 7.74492 5.25288 11.1373C5.25288 11.2386 5.25288 11.3399 5.25288 11.4411C5.25288 12.6563 5.60656 13.7702 6.16235 14.7323L5.00024 18.1753L8.58762 17.0614C9.49709 17.5677 10.5581 17.8715 11.7202 17.8715C15.3076 17.8715 18.1876 14.9854 18.1876 11.4411C18.1876 11.3905 18.1876 11.3399 18.1876 11.2892ZM11.7202 16.8082C10.6087 16.8082 9.59814 16.5044 8.7392 15.8968L6.66761 16.555L7.32446 14.5297C6.66762 13.6183 6.31393 12.555 6.31393 11.3905C6.31393 11.2386 6.31393 11.0361 6.36446 10.8842C6.61709 8.14998 8.9413 6.0234 11.7708 6.0234C14.6002 6.0234 16.975 8.20062 17.1771 10.9854C17.1771 11.1373 17.1771 11.2892 17.1771 11.3905C17.1771 14.4285 14.7518 16.8082 11.7202 16.8082Z" fill="white"/>
<path fill-rule="evenodd" clip-rule="evenodd" d="M14.7012 12.7066C14.5497 12.6053 13.7412 12.2509 13.6402 12.2003C13.4886 12.1496 13.3876 12.099 13.2865 12.3015C13.1855 12.4534 12.8823 12.8079 12.7812 12.9091C12.6802 13.0104 12.5791 13.0104 12.4276 12.9598C12.276 12.8585 11.7707 12.7066 11.1644 12.2003C10.7097 11.7952 10.356 11.2889 10.3055 11.137C10.2044 10.9851 10.3055 10.8838 10.356 10.8332C10.4065 10.7825 10.5076 10.6307 10.6086 10.58C10.6086 10.5294 10.6591 10.5294 10.6591 10.5294C10.7097 10.4788 10.7097 10.4281 10.7602 10.3269C10.8107 10.2256 10.8107 10.1243 10.7602 10.0737C10.7097 9.97242 10.4065 9.21293 10.2549 8.90913C10.1033 8.60533 10.0023 8.65597 9.90125 8.65597C9.80019 8.65597 9.69914 8.65597 9.59808 8.65597C9.49703 8.65597 9.29493 8.7066 9.19387 8.8585C9.04229 9.0104 8.63809 9.41546 8.63809 10.175C8.63809 10.3775 8.68861 10.5294 8.73914 10.7319C8.89072 11.2889 9.2444 11.7446 9.29492 11.8458C9.39598 11.9471 10.4065 13.5674 11.9728 14.2256C13.5897 14.8332 13.5897 14.6307 13.8928 14.6307C14.196 14.6307 14.8528 14.2762 14.9539 13.8712C15.1055 13.5167 15.1054 13.2129 15.0549 13.1117C14.9539 12.8585 14.8528 12.8079 14.7012 12.7066Z" fill="white"/>
</svg>
