<svg width="24" height="24" viewBox="0 0 24 24" fill="none" xmlns="http://www.w3.org/2000/svg">
<rect width="24" height="24" rx="8" fill="#0A0A0A"/>
<path d="M11.6192 6.22593C13.3876 6.22593 13.5897 6.22593 14.2971 6.27656C14.9539 6.3272 15.3076 6.42846 15.5097 6.4791C15.8129 6.58036 16.015 6.73226 16.2676 6.98543C16.5202 7.23859 16.6213 7.44112 16.7729 7.74492C16.8739 7.99808 16.975 8.30188 16.975 8.96011C17.0255 9.66897 17.0255 9.8715 17.0255 11.6437C17.0255 13.4158 17.0255 13.6183 16.975 14.3272C16.9245 14.9854 16.8234 15.3399 16.7729 15.5424C16.6718 15.8462 16.5202 16.0487 16.2676 16.3019C16.015 16.555 15.8129 16.6563 15.5097 16.8082C15.2571 16.9095 14.9539 17.0107 14.2971 17.0107C13.5897 17.0614 13.3876 17.0614 11.6192 17.0614C9.85077 17.0614 9.64867 17.0614 8.9413 17.0107C8.28446 16.9601 7.93077 16.8588 7.72867 16.8082C7.42551 16.7069 7.2234 16.555 6.97077 16.3019C6.71814 16.0487 6.61709 15.8462 6.46551 15.5424C6.36446 15.2892 6.2634 14.9854 6.2634 14.3272C6.21288 13.6183 6.21288 13.4158 6.21288 11.6437C6.21288 9.8715 6.21288 9.66897 6.2634 8.96011C6.31393 8.30188 6.41498 7.94745 6.46551 7.74492C6.56656 7.44112 6.71814 7.23859 6.97077 6.98543C7.2234 6.73226 7.42551 6.631 7.72867 6.4791C7.9813 6.37783 8.28446 6.27656 8.9413 6.27656C9.64867 6.22593 9.85077 6.22593 11.6192 6.22593ZM11.6192 5.01074C9.85077 5.01074 9.59814 5.01074 8.89077 5.06138C8.1834 5.11201 7.72866 5.21327 7.27393 5.36517C6.81919 5.51707 6.46551 5.77024 6.11183 6.12467C5.75814 6.4791 5.50551 6.83353 5.35393 7.28922C5.20235 7.69429 5.1013 8.20062 5.05077 8.90948C5.00024 9.61834 5.00024 9.82087 5.00024 11.6437C5.00024 13.4664 5.00024 13.669 5.05077 14.3778C5.1013 15.0867 5.20235 15.5424 5.35393 15.9981C5.50551 16.4538 5.75814 16.8082 6.11183 17.1626C6.46551 17.5171 6.81919 17.7702 7.27393 17.9221C7.67814 18.074 8.1834 18.1753 8.89077 18.2259C9.59814 18.2766 9.80024 18.2766 11.6192 18.2766C13.3876 18.2766 13.6402 18.2766 14.3476 18.2259C15.055 18.1753 15.5097 18.074 15.9645 17.9221C16.4192 17.7702 16.7729 17.5171 17.1266 17.1626C17.4802 16.8082 17.7329 16.4538 17.8845 15.9981C18.036 15.593 18.1371 15.0867 18.1876 14.3778C18.2381 13.669 18.2381 13.4664 18.2381 11.6437C18.2381 9.82087 18.2381 9.61834 18.1876 8.90948C18.0866 8.20062 17.9855 7.69429 17.8339 7.28922C17.6823 6.83353 17.4297 6.4791 17.076 6.12467C16.7223 5.77024 16.3687 5.51707 15.9139 5.36517C15.5097 5.21327 15.0045 5.11201 14.2971 5.06138C13.5897 5.01074 13.3876 5.01074 11.6192 5.01074Z" fill="white"/>
<path d="M11.619 8.20037C9.74952 8.20037 8.23373 9.71936 8.23373 11.5928C8.23373 13.4662 9.74952 14.9852 11.619 14.9852C13.4885 14.9852 15.0043 13.4662 15.0043 11.5928C15.0043 9.71936 13.4379 8.20037 11.619 8.20037ZM11.619 13.77C10.4064 13.77 9.44636 12.808 9.44636 11.5928C9.44636 10.3776 10.4064 9.41556 11.619 9.41556C12.8316 9.41556 13.7916 10.3776 13.7916 11.5928C13.7916 12.808 12.7811 13.77 11.619 13.77Z" fill="white"/>
<path d="M15.9137 8.0992C15.9137 8.5549 15.56 8.90933 15.1053 8.90933C14.6506 8.90933 14.2969 8.5549 14.2969 8.0992C14.2969 7.64351 14.6506 7.28907 15.1053 7.28907C15.56 7.28907 15.9137 7.64351 15.9137 8.0992Z" fill="white"/>
</svg>
