<svg width="24" height="24" viewBox="0 0 24 24" fill="none" xmlns="http://www.w3.org/2000/svg">
<rect width="24" height="24" rx="8" fill="#0A0A0A"/>
<path d="M5.45473 12.1495C5.45473 15.8457 8.43579 18.833 12.1242 18.833C12.5284 18.833 12.9832 18.7824 13.3874 18.7318C13.9937 19.0862 14.6505 19.2887 15.4084 19.2887C17.5811 19.2887 19.2989 17.5166 19.2989 15.39C19.2989 14.6305 19.0968 13.9216 18.6926 13.314C18.7432 12.9596 18.7937 12.5546 18.7937 12.1495C18.7937 8.45329 15.8126 5.46595 12.1242 5.46595C11.72 5.46595 11.3158 5.51658 10.9116 5.56722C10.3053 5.21279 9.64843 5.01025 8.89053 5.01025C6.7179 5.01025 5 6.7824 5 8.90899C5 9.66848 5.20211 10.3773 5.55579 10.9343C5.50527 11.3394 5.45473 11.7444 5.45473 12.1495ZM12.2253 7.39C14.3979 7.5419 15.661 8.45329 15.7621 9.36468C15.8126 9.92165 15.4589 10.3773 14.7516 10.3773C13.7916 10.3773 13.6905 9.06089 12.0232 9.06089C11.2653 9.06089 10.6084 9.36468 10.6084 10.0735C10.6084 11.4913 15.9642 10.6811 15.9642 13.8204C15.9642 15.6432 14.499 16.8077 12.3768 16.8077C10.4568 16.8077 8.58737 15.947 8.58737 14.4786C8.58737 14.0229 8.94106 13.6178 9.34527 13.6178C10.4568 13.6178 10.4568 15.2887 12.2253 15.2887C13.4884 15.2887 13.8926 14.6305 13.8926 14.1242C13.8926 12.4027 8.48631 13.4659 8.48631 10.2254C8.53684 8.50392 9.95157 7.28873 12.2253 7.39Z" fill="white"/>
</svg>
