<svg width="24" height="24" viewBox="0 0 24 24" fill="none" xmlns="http://www.w3.org/2000/svg">
<path fill-rule="evenodd" clip-rule="evenodd" d="M1.7435 3.7435C2.21955 3.26744 2.86522 3 3.53846 3H20.1538C20.8271 3 21.4728 3.26744 21.9488 3.7435C22.4249 4.21955 22.6923 4.86522 22.6923 5.53846V8.71867L11.8462 14.6348L1 8.71867V5.53846C1 4.86522 1.26744 4.21955 1.7435 3.7435ZM3.53846 4.38462C3.23244 4.38462 2.93896 4.50618 2.72257 4.72257C2.50618 4.93896 2.38462 5.23244 2.38462 5.53846V7.89672L11.8462 13.0576L21.3077 7.89672V5.53846C21.3077 5.23244 21.1861 4.93896 20.9697 4.72257C20.7533 4.50618 20.4599 4.38462 20.1538 4.38462H3.53846ZM2.38462 12.2308V18.4615C2.38462 18.7676 2.50618 19.061 2.72257 19.2774C2.93896 19.4938 3.23244 19.6154 3.53846 19.6154H20.1538C20.4599 19.6154 20.7533 19.4938 20.9697 19.2774C21.1861 19.061 21.3077 18.7676 21.3077 18.4615V12.2308H22.6923V18.4615C22.6923 19.1348 22.4249 19.7804 21.9488 20.2565C21.4728 20.7326 20.8271 21 20.1538 21H3.53846C2.86522 21 2.21955 20.7326 1.7435 20.2565C1.26744 19.7804 1 19.1348 1 18.4615V12.2308H2.38462Z" fill="#0A0A0A"/>
</svg>
