<svg width="24" height="24" viewBox="0 0 24 24" fill="none" xmlns="http://www.w3.org/2000/svg">
<path fill-rule="evenodd" clip-rule="evenodd" d="M10.9843 3.11564C10.5157 2.64706 9.75622 2.64706 9.28764 3.11564L3.11564 9.28764C2.64706 9.75622 2.64706 10.5157 3.11564 10.9843L13.0156 20.8843C13.4842 21.3528 14.2437 21.3528 14.7123 20.8843L20.8843 14.7123C21.3526 14.2439 21.3531 13.4845 20.8833 13.0146L10.9843 3.11564ZM8.15627 1.98427C9.24969 0.890846 11.0222 0.890846 12.1156 1.98427L22.0146 11.8833C23.1088 12.9774 23.1093 14.75 22.0156 15.8436L15.8436 22.0156C14.7502 23.1091 12.9777 23.1091 11.8843 22.0156L1.98427 12.1156C0.890846 11.0222 0.890846 9.24969 1.98427 8.15627L8.15627 1.98427Z" fill="#0A0A0A"/>
<path d="M16.2431 16.2425C16.6336 15.852 16.6336 15.2189 16.2431 14.8284C15.8525 14.4378 15.2194 14.4378 14.8289 14.8284C14.4383 15.2189 14.4383 15.852 14.8289 16.2426C15.2194 16.6331 15.8525 16.6331 16.2431 16.2425Z" fill="#0A0A0A"/>
<path fill-rule="evenodd" clip-rule="evenodd" d="M16.2 0.199951H17C20.7558 0.199951 23.8 3.24412 23.8 6.99995V7.79995H22.2V6.99995C22.2 4.12778 19.8721 1.79995 17 1.79995H16.2V0.199951Z" fill="#0A0A0A"/>
<path fill-rule="evenodd" clip-rule="evenodd" d="M1.79995 16.2V17C1.79995 19.8721 4.12778 22.2 6.99995 22.2H7.79995V23.8H6.99995C3.24412 23.8 0.199951 20.7558 0.199951 17V16.2H1.79995Z" fill="#0A0A0A"/>
</svg>
